<svg xmlns="http://www.w3.org/2000/svg" width="1280" height="330" viewBox="0 0 1280 330">
  <path fill="#FFF" fill-rule="evenodd" d="M404.957726,132.526341 C402.063813,120.963532 397.851371,111.725271 392.320401,104.807278 C386.789431,97.8935652 379.477592,92.315505 370.380602,88.0859398 C361.283612,83.8520936 351.724281,81.7330301 341.702609,81.7330301 C325.156789,81.7330301 310.948361,87.0499532 299.060201,97.6837993 C290.378462,105.428013 283.815786,117.042194 279.372174,132.526341 L404.957726,132.526341 Z M404.957726,177.899987 L423.233043,187.502127 C417.239732,199.270421 410.313177,208.769819 402.46194,215.99604 C394.606421,223.222261 385.774849,228.718983 375.958662,232.486207 C366.138194,236.253431 355.029164,238.137043 342.631572,238.137043 C315.14796,238.137043 293.653378,229.134234 278.152107,211.115773 C262.655117,193.101592 254.902341,172.737177 254.902341,150.026809 C254.902341,128.656375 261.460736,109.606207 274.586087,92.8848696 C291.221806,71.6171773 313.491237,60.9833311 341.3901,60.9833311 C370.115184,60.9833311 393.056722,71.8783144 410.206154,93.6554381 C422.398261,109.041124 428.597057,128.245405 428.806823,151.264 L277.201739,151.264 C277.612709,170.836441 283.867157,186.87711 295.960803,199.390288 C308.054448,211.903465 322.994916,218.162194 340.769365,218.162194 C349.348361,218.162194 357.691906,216.672428 365.808562,213.688615 C373.920936,210.709084 380.821806,206.744936 386.50689,201.809017 C392.191973,196.873097 398.343679,188.901993 404.957726,177.899987 Z M239.386943,65.3199197 L261.930355,65.3199197 L188.739184,233.804736 L184.719385,233.804736 L130.843799,113.167946 L77.0024615,233.804736 L72.9655385,233.804736 L0.998715719,65.3199197 L23.2981137,65.3199197 L74.9433311,187.656241 L128.69905,65.3199197 L132.62895,65.3199197 L186.748548,187.656241 L239.386943,65.3199197 Z M533.120401,217.233659 C545.166957,217.233659 556.297391,214.26697 566.490301,208.329311 C576.687492,202.391652 584.799866,194.056669 590.823144,183.32008 C596.850702,172.583492 599.864482,161.226167 599.864482,149.252388 C599.864482,137.274328 596.825017,125.869913 590.746087,115.026301 C584.671438,104.18697 576.507692,95.7492441 566.25913,89.7088428 C556.010569,83.6684415 545.068495,80.6503813 533.428629,80.6503813 C521.583278,80.6503813 510.332977,83.6684415 499.673445,89.7088428 C489.009632,95.7492441 480.824482,103.878742 475.105151,114.097338 C469.3901,124.320214 466.530435,135.831652 466.530435,148.631652 C466.530435,168.144161 472.938997,184.454528 485.764682,197.567037 C498.590368,210.679545 514.374181,217.233659 533.120401,217.233659 Z M446.401472,233.805164 L446.401472,0.280080268 L468.080134,0.280080268 L468.080134,94.276602 C477.155719,83.1290435 487.314381,74.7940602 498.55612,69.2716522 C509.79786,63.7449632 522.118395,60.9837592 535.530569,60.9837592 C559.35398,60.9837592 579.692709,69.6312508 596.555318,86.9219532 C613.417926,104.216936 621.855652,125.197806 621.855652,149.873124 C621.855652,174.235933 613.345151,195.037003 596.328428,212.276334 C579.307425,229.519946 558.835987,238.137472 534.909833,238.137472 C521.193712,238.137472 508.766154,235.196468 497.627157,229.314462 C486.488161,223.428174 476.642007,214.600883 468.080134,202.832589 L468.080134,233.805164 L446.401472,233.805164 Z M760.854662,128.500548 C758.063492,119.108174 752.558207,111.466702 744.334528,105.580415 C736.110849,99.698408 726.572923,96.7531237 715.716468,96.7531237 C703.926769,96.7531237 693.584027,100.062288 684.688241,106.667773 C679.1059,110.794595 673.938809,118.072187 669.178408,128.500548 L760.854662,128.500548 Z M803.12891,161.793391 L667.320482,161.793391 C669.281151,173.771452 674.521017,183.296535 683.04008,190.364361 C691.559144,197.440749 702.41988,200.972522 715.63513,200.972522 C731.431786,200.972522 745.006635,195.454395 756.36396,184.405298 L791.981351,201.126635 C783.098408,213.725431 772.468843,223.040749 760.079813,229.081151 C747.695064,235.117271 732.981485,238.139612 715.947639,238.139612 C689.517137,238.139612 667.992589,229.804629 651.369712,213.130381 C634.746836,196.460415 626.441819,175.578007 626.441819,150.491719 C626.441819,124.784696 634.725431,103.439946 651.292656,86.4574716 C667.864161,69.4749967 688.639545,60.9858997 713.62309,60.9858997 C740.156334,60.9858997 761.727973,69.4749967 778.35513,86.4574716 C794.973726,103.439946 803.287304,125.867773 803.287304,153.74095 L803.12891,161.793391 Z M893.045271,100.007492 C879.975572,100.007492 869.123398,104.630903 860.480187,113.869164 C851.836977,123.107425 847.513231,134.952776 847.513231,149.405217 C847.513231,163.960401 851.914033,175.938462 860.707077,185.335117 C869.504401,194.727492 880.335171,199.423679 893.199385,199.423679 C906.474569,199.423679 917.480856,194.804548 926.226809,185.566288 C934.968482,176.328027 939.343599,164.221538 939.343599,149.251104 C939.343599,134.593177 934.968482,122.72214 926.226809,113.633712 C917.480856,104.553846 906.418916,100.007492 893.045271,100.007492 Z M937.485672,0.283076923 L979.75992,0.283076923 L979.75992,233.80388 L937.485672,233.80388 L937.485672,215.995184 C929.232027,223.84214 920.961258,229.497258 912.660522,232.951973 C904.359786,236.41097 895.361258,238.140468 885.669217,238.140468 C863.913498,238.140468 845.094502,229.698462 829.212227,212.818729 C813.334234,195.938997 805.393097,174.958127 805.393097,149.871839 C805.393097,123.856589 813.077378,102.537525 828.441659,85.9146488 C843.80594,69.2960535 862.466542,60.9824749 884.432027,60.9824749 C894.539318,60.9824749 904.021592,62.8960535 912.891692,66.7146488 C921.757512,70.5332441 929.955505,76.2654181 937.485672,83.9026087 L937.485672,0.283076923 Z M993.63786,233.805164 L993.63786,65.3203478 L1035.91639,65.3203478 L1035.91639,233.805164 L993.63786,233.805164 Z M1130.01009,100.007492 C1116.94039,100.007492 1106.08821,104.630903 1097.445,113.869164 C1088.79751,123.107425 1084.47805,134.952776 1084.47805,149.405217 C1084.47805,163.960401 1088.87885,175.938462 1097.67189,185.335117 C1106.46922,194.727492 1117.29999,199.423679 1130.15992,199.423679 C1143.43938,199.423679 1154.44567,194.804548 1163.19163,185.566288 C1171.9333,176.328027 1176.30841,164.221538 1176.30841,149.251104 C1176.30841,134.593177 1171.9333,122.72214 1163.19163,113.633712 C1154.44567,104.553846 1143.38373,100.007492 1130.01009,100.007492 Z M1174.45049,65.3190635 L1216.72474,65.3190635 L1216.72474,233.80388 L1174.45049,233.80388 L1174.45049,215.995184 C1166.19684,223.84214 1157.92607,229.497258 1149.62534,232.951973 C1141.3246,236.41097 1132.32607,238.140468 1122.63403,238.140468 C1100.87403,238.140468 1082.05932,229.698462 1066.17704,212.818729 C1050.29905,195.938997 1042.35791,174.958127 1042.35791,149.871839 C1042.35791,123.856589 1050.03791,102.537525 1065.40647,85.9146488 C1080.77076,69.2960535 1099.43136,60.9824749 1121.39684,60.9824749 C1131.50413,60.9824749 1140.98213,62.8960535 1149.85651,66.7146488 C1158.72233,70.5332441 1166.92032,76.2654181 1174.45049,83.9026087 L1174.45049,65.3190635 Z M1253.11227,183.320508 C1260.51829,183.320508 1266.87976,186.004656 1272.17956,191.37295 C1277.47936,196.741244 1280.13354,203.243987 1280.13354,210.881177 C1280.13354,218.419906 1277.50504,224.849873 1272.25662,230.162515 C1267.00819,235.483719 1260.72805,238.1379 1253.42049,238.1379 C1245.90317,238.1379 1239.49461,235.428067 1234.19481,230.008401 C1228.89073,224.588736 1226.24511,218.008936 1226.24511,210.264722 C1226.24511,202.833017 1228.86504,196.480107 1234.11775,191.218836 C1239.36618,185.953284 1245.69769,183.320508 1253.11227,183.320508 Z M993.63786,48.3378729 L993.63786,0.280080268 L1035.91639,0.280080268 L1035.91639,48.3378729 L993.63786,48.3378729 Z" transform="translate(-1 33)"/>
</svg>
